<?xml version="1.0" encoding="utf-8"?>
<!-- Generator: Adobe Illustrator 21.0.0, SVG Export Plug-In . SVG Version: 6.00 Build 0)  -->
<svg version="1.1" xmlns="http://www.w3.org/2000/svg" xmlns:xlink="http://www.w3.org/1999/xlink" x="0px" y="0px"
	 viewBox="0 0 2457 1399" style="enable-background:new 0 0 2457 1399;" xml:space="preserve">
<style type="text/css">
	.st0{fill:#FFFFFF;}
	.st1{fill:#47C0B6;}
	.st2{fill:#11495D;}
	.st3{fill:#0C313D;}
</style>
<g id="Layer_1">
</g>
<g id="Layer_2">
	<rect x="1.6" y="1.1" class="st0" width="2457" height="1399"/>
	<g>
		<path class="st1" d="M2313.3,455H147c-39.6,0-72-32.4-72-72V183.7c0-39.6,32.4-72,72-72h2166.3c39.6,0,72,32.4,72,72V383
			C2385.3,422.6,2352.9,455,2313.3,455z"/>
		<path class="st2" d="M2313.3,872.2h-974.2c-39.6,0-72-32.4-72-72V601c0-39.6,32.4-72,72-72h974.2c39.6,0,72,32.4,72,72v199.2
			C2385.3,839.8,2352.9,872.2,2313.3,872.2z"/>
		<path class="st2" d="M1121.1,872.2H147c-39.6,0-72-32.4-72-72V601c0-39.6,32.4-72,72-72h974.2c39.6,0,72,32.4,72,72v199.2
			C1193.1,839.8,1160.7,872.2,1121.1,872.2z"/>
		<path class="st3" d="M2313.3,1289.5h-974.2c-39.6,0-72-32.4-72-72v-199.2c0-39.6,32.4-72,72-72h974.2c39.6,0,72,32.4,72,72v199.2
			C2385.3,1257.1,2352.9,1289.5,2313.3,1289.5z"/>
		<path class="st3" d="M1121.1,1289.5H147c-39.6,0-72-32.4-72-72v-199.2c0-39.6,32.4-72,72-72h974.2c39.6,0,72,32.4,72,72v199.2
			C1193.1,1257.1,1160.7,1289.5,1121.1,1289.5z"/>
		<g>
			<path class="st0" d="M986.2,207.3l-4.3-11.9h-16.4l-4.2,11.9H954l16-43h7.6l16,43H986.2z M980.1,189.4l-4-11.7
				c-0.3-0.8-0.7-2-1.2-3.7c-0.5-1.7-0.9-2.9-1.1-3.7c-0.5,2.4-1.3,5-2.3,7.9l-3.9,11.2H980.1z"/>
			<path class="st0" d="M1023.1,164.5h7.3l-15,42.8h-7.4L993,164.5h7.2l8.9,26.6c0.5,1.3,1,2.9,1.5,4.9s0.9,3.5,1,4.5
				c0.3-1.5,0.6-3.2,1.2-5.2s1-3.4,1.3-4.3L1023.1,164.5z"/>
			<path class="st0" d="M1062,207.3l-4.3-11.9h-16.4l-4.2,11.9h-7.4l16-43h7.6l16,43H1062z M1055.8,189.4l-4-11.7
				c-0.3-0.8-0.7-2-1.2-3.7c-0.5-1.7-0.9-2.9-1.1-3.7c-0.5,2.4-1.3,5-2.3,7.9l-3.9,11.2H1055.8z"/>
			<path class="st0" d="M1074.5,207.3v-42.8h7v42.8H1074.5z"/>
			<path class="st0" d="M1092.2,207.3v-42.8h7v36.8h18.1v6H1092.2z"/>
			<path class="st0" d="M1150.7,207.3l-4.3-11.9H1130l-4.2,11.9h-7.4l16-43h7.6l16,43H1150.7z M1144.5,189.4l-4-11.7
				c-0.3-0.8-0.7-2-1.2-3.7c-0.5-1.7-0.9-2.9-1.1-3.7c-0.5,2.4-1.3,5-2.3,7.9l-3.9,11.2H1144.5z"/>
			<path class="st0" d="M1163.2,164.5h12.7c5.9,0,10.2,0.9,12.8,2.6c2.6,1.7,3.9,4.4,3.9,8.1c0,2.5-0.6,4.6-1.9,6.2
				s-3.1,2.7-5.6,3.1v0.3c3,0.6,5.2,1.7,6.6,3.4c1.4,1.7,2.1,3.9,2.1,6.8c0,3.8-1.3,6.9-4,9c-2.7,2.2-6.4,3.3-11.2,3.3h-15.5V164.5z
				 M1170.2,182.2h6.7c2.9,0,5.1-0.5,6.4-1.4s2-2.5,2-4.7c0-2-0.7-3.5-2.2-4.4c-1.5-0.9-3.8-1.3-6.9-1.3h-6.1V182.2z M1170.2,187.9
				v13.6h7.4c2.9,0,5.1-0.6,6.6-1.7s2.2-2.9,2.2-5.3c0-2.2-0.8-3.9-2.3-5s-3.8-1.6-6.9-1.6H1170.2z"/>
			<path class="st0" d="M1202.2,207.3v-42.8h7v36.8h18.1v6H1202.2z"/>
			<path class="st0" d="M1258.3,207.3h-24.2v-42.8h24.2v5.9h-17.2v11.7h16.1v5.9h-16.1v13.4h17.2V207.3z"/>
			<path class="st0" d="M1296.8,207.3h-7v-36.8h-12.6v-6h32.2v6h-12.6V207.3z"/>
			<path class="st0" d="M1353.3,185.9c0,7-1.7,12.4-5.2,16.3s-8.4,5.8-14.8,5.8c-6.5,0-11.4-1.9-14.9-5.8s-5.2-9.3-5.2-16.4
				s1.7-12.5,5.2-16.3s8.5-5.7,14.9-5.7c6.4,0,11.3,1.9,14.8,5.8S1353.3,178.9,1353.3,185.9z M1320.7,185.9c0,5.3,1.1,9.3,3.2,12
				s5.3,4.1,9.5,4.1c4.2,0,7.3-1.3,9.4-4s3.2-6.7,3.2-12c0-5.3-1-9.2-3.1-12s-5.2-4.1-9.4-4.1c-4.2,0-7.4,1.4-9.5,4.1
				S1320.7,180.6,1320.7,185.9z"/>
			<path class="st0" d="M1394.6,207.3h-8.1l-13.4-19.4l-4.1,3.4v16h-7v-42.8h7V185c1.9-2.3,3.8-4.6,5.7-6.8l11.6-13.7h8
				c-7.5,8.8-12.8,15-16.1,18.8L1394.6,207.3z"/>
			<path class="st0" d="M1423.9,207.3h-24.2v-42.8h24.2v5.9h-17.2v11.7h16.1v5.9h-16.1v13.4h17.2V207.3z"/>
			<path class="st0" d="M1468.3,207.3h-8.6l-21.1-34.1h-0.2l0.1,1.9c0.3,3.6,0.4,7,0.4,10v22.3h-6.4v-42.8h8.5l21,34h0.2
				c0-0.4-0.1-2.1-0.2-4.9s-0.2-5-0.2-6.6v-22.4h6.4V207.3z"/>
			<path class="st0" d="M1503.7,195.7c0,3.8-1.4,6.8-4.1,9s-6.6,3.3-11.4,3.3s-8.8-0.8-11.9-2.3V199c2,0.9,4,1.6,6.2,2.2
				s4.2,0.8,6.1,0.8c2.8,0,4.8-0.5,6.1-1.6s2-2.5,2-4.2c0-1.6-0.6-3-1.8-4.1s-3.7-2.4-7.5-4c-3.9-1.6-6.7-3.4-8.3-5.4
				s-2.4-4.5-2.4-7.3c0-3.6,1.3-6.4,3.8-8.4s5.9-3.1,10.2-3.1c4.1,0,8.2,0.9,12.2,2.7l-2.2,5.7c-3.8-1.6-7.2-2.4-10.2-2.4
				c-2.3,0-4,0.5-5.2,1.5s-1.8,2.3-1.8,3.9c0,1.1,0.2,2.1,0.7,2.9s1.2,1.5,2.3,2.2s3,1.6,5.8,2.8c3.1,1.3,5.4,2.5,6.9,3.7
				s2.5,2.4,3.2,3.8S1503.7,193.8,1503.7,195.7z"/>
		</g>
		<g>
			<g>
				<path class="st0" d="M528.3,612.9c0,3.8-1.4,6.8-4.1,9s-6.6,3.3-11.4,3.3c-4.8,0-8.8-0.8-11.9-2.3v-6.6c2,0.9,4,1.6,6.2,2.2
					s4.2,0.8,6.1,0.8c2.8,0,4.8-0.5,6.1-1.6s2-2.5,2-4.2c0-1.6-0.6-3-1.8-4.1c-1.2-1.1-3.7-2.4-7.5-4c-3.9-1.6-6.7-3.4-8.3-5.4
					c-1.6-2-2.4-4.5-2.4-7.3c0-3.6,1.3-6.4,3.8-8.4c2.5-2.1,5.9-3.1,10.2-3.1c4.1,0,8.2,0.9,12.2,2.7l-2.2,5.7
					c-3.8-1.6-7.2-2.4-10.2-2.4c-2.3,0-4,0.5-5.2,1.5s-1.8,2.3-1.8,3.9c0,1.1,0.2,2.1,0.7,2.9s1.2,1.5,2.3,2.2
					c1.1,0.7,3,1.6,5.8,2.8c3.1,1.3,5.4,2.5,6.9,3.7s2.5,2.4,3.2,3.8C528,609.3,528.3,611,528.3,612.9z"/>
				<path class="st0" d="M574.1,603.1c0,7-1.7,12.4-5.2,16.3s-8.4,5.8-14.8,5.8c-6.5,0-11.4-1.9-14.9-5.8c-3.5-3.8-5.2-9.3-5.2-16.4
					s1.7-12.5,5.2-16.3s8.5-5.7,14.9-5.7c6.4,0,11.3,1.9,14.8,5.8C572.3,590.7,574.1,596.1,574.1,603.1z M541.4,603.1
					c0,5.3,1.1,9.3,3.2,12c2.1,2.7,5.3,4.1,9.5,4.1c4.2,0,7.3-1.3,9.4-4c2.1-2.7,3.2-6.7,3.2-12c0-5.3-1.1-9.2-3.1-12
					c-2.1-2.7-5.2-4.1-9.4-4.1c-4.2,0-7.4,1.4-9.5,4.1S541.4,597.9,541.4,603.1z"/>
				<path class="st0" d="M589.6,624.6h-6.9v-42.8h24.2v5.9h-17.2v13.4h16.1v5.9h-16.1V624.6z"/>
				<path class="st0" d="M628.8,624.6h-7v-36.8h-12.6v-6h32.2v6h-12.6V624.6z"/>
				<path class="st0" d="M680.6,587.1c-4,0-7.2,1.4-9.5,4.3c-2.3,2.9-3.5,6.8-3.5,11.8c0,5.3,1.1,9.2,3.3,11.9c2.2,2.7,5.4,4,9.6,4
					c1.8,0,3.6-0.2,5.3-0.5s3.5-0.8,5.3-1.4v6c-3.4,1.3-7.2,1.9-11.4,1.9c-6.3,0-11.1-1.9-14.4-5.7c-3.4-3.8-5-9.2-5-16.3
					c0-4.5,0.8-8.3,2.4-11.7c1.6-3.3,4-5.9,7.1-7.7c3.1-1.8,6.7-2.7,10.9-2.7c4.4,0,8.4,0.9,12.1,2.8l-2.5,5.8
					c-1.4-0.7-3-1.3-4.6-1.8S682.3,587.1,680.6,587.1z"/>
				<path class="st0" d="M726.3,624.6l-4.3-11.9h-16.4l-4.2,11.9h-7.4l16-43h7.6l16,43H726.3z M720.2,606.7l-4-11.7
					c-0.3-0.8-0.7-2-1.2-3.7c-0.5-1.7-0.9-2.9-1.1-3.7c-0.5,2.4-1.3,5-2.3,7.9l-3.9,11.2H720.2z"/>
				<path class="st0" d="M767.2,594.7c0,4.5-1.5,7.9-4.4,10.3s-7.1,3.6-12.5,3.6h-4.5v16h-7v-42.8h12.3c5.4,0,9.4,1.1,12,3.3
					S767.2,590.4,767.2,594.7z M745.8,602.7h3.7c3.6,0,6.2-0.6,7.9-1.9c1.7-1.2,2.5-3.2,2.5-5.9c0-2.5-0.8-4.3-2.3-5.5
					c-1.5-1.2-3.8-1.8-7-1.8h-4.9V602.7z"/>
			</g>
		</g>
		<g>
			<g>
				<path class="st0" d="M1719.1,624.6h-7v-19.3h-19.7v19.3h-7v-42.8h7v17.5h19.7v-17.5h7V624.6z"/>
				<path class="st0" d="M1756.3,624.6l-4.3-11.9h-16.4l-4.2,11.9h-7.4l16-43h7.6l16,43H1756.3z M1750.2,606.7l-4-11.7
					c-0.3-0.8-0.7-2-1.2-3.7s-0.9-2.9-1.1-3.7c-0.5,2.4-1.3,5-2.3,7.9l-3.9,11.2H1750.2z"/>
				<path class="st0" d="M1775.8,607.5v17.1h-7v-42.8h12.1c5.5,0,9.6,1,12.3,3.1s4,5.2,4,9.4c0,5.3-2.8,9.1-8.3,11.4l12.1,19h-8
					l-10.3-17.1H1775.8z M1775.8,601.7h4.9c3.3,0,5.6-0.6,7.1-1.8s2.2-3,2.2-5.4c0-2.4-0.8-4.2-2.4-5.2s-4-1.6-7.1-1.6h-4.6V601.7z"
					/>
				<path class="st0" d="M1841.4,602.8c0,7.1-2,12.5-5.9,16.2s-9.6,5.6-17,5.6h-12v-42.8h13.2c6.8,0,12.1,1.8,15.9,5.5
					S1841.4,596.1,1841.4,602.8z M1834,603c0-10.3-4.8-15.4-14.4-15.4h-6.1v31.1h5C1828.9,618.7,1834,613.5,1834,603z"/>
				<path class="st0" d="M1883.2,587.1c-4,0-7.2,1.4-9.5,4.3c-2.3,2.9-3.5,6.8-3.5,11.8c0,5.3,1.1,9.2,3.3,11.9s5.4,4,9.6,4
					c1.8,0,3.6-0.2,5.3-0.5s3.5-0.8,5.3-1.4v6c-3.4,1.3-7.2,1.9-11.4,1.9c-6.3,0-11.1-1.9-14.4-5.7c-3.4-3.8-5-9.2-5-16.3
					c0-4.5,0.8-8.3,2.4-11.7s4-5.9,7.1-7.7c3.1-1.8,6.7-2.7,10.9-2.7c4.4,0,8.4,0.9,12.1,2.8l-2.5,5.8c-1.4-0.7-3-1.3-4.6-1.8
					S1885,587.1,1883.2,587.1z"/>
				<path class="st0" d="M1929,624.6l-4.3-11.9h-16.4l-4.2,11.9h-7.4l16-43h7.6l16,43H1929z M1922.9,606.7l-4-11.7
					c-0.3-0.8-0.7-2-1.2-3.7s-0.9-2.9-1.1-3.7c-0.5,2.4-1.3,5-2.3,7.9l-3.9,11.2H1922.9z"/>
				<path class="st0" d="M1969.9,594.7c0,4.5-1.5,7.9-4.4,10.3s-7.1,3.6-12.5,3.6h-4.5v16h-7v-42.8h12.3c5.4,0,9.4,1.1,12,3.3
					S1969.9,590.4,1969.9,594.7z M1948.5,602.7h3.7c3.6,0,6.2-0.6,7.9-1.9s2.5-3.2,2.5-5.9c0-2.5-0.8-4.3-2.3-5.5s-3.8-1.8-7-1.8
					h-4.9V602.7z"/>
			</g>
		</g>
		<g>
			<g>
				<path class="st0" d="M513.7,999v27.7c0,3.2-0.7,5.9-2,8.3c-1.4,2.4-3.3,4.2-5.9,5.5c-2.6,1.3-5.6,1.9-9.2,1.9
					c-5.3,0-9.4-1.4-12.4-4.2c-2.9-2.8-4.4-6.7-4.4-11.6V999h7v27.1c0,3.5,0.8,6.1,2.5,7.8s4.2,2.5,7.6,2.5c6.6,0,9.9-3.5,9.9-10.4
					v-27H513.7z"/>
				<path class="st0" d="M559.8,1041.8h-8.6l-21.1-34.1h-0.2l0.1,1.9c0.3,3.6,0.4,7,0.4,10v22.3h-6.4V999h8.5l21,34h0.2
					c0-0.4-0.1-2.1-0.2-4.9s-0.2-5-0.2-6.6V999h6.4V1041.8z"/>
				<path class="st0" d="M570.5,1041.8V999h7v42.8H570.5z"/>
				<path class="st0" d="M603,1041.8h-7V1005h-12.6v-6h32.2v6H603V1041.8z"/>
				<path class="st0" d="M664.9,1011.9c0,4.5-1.5,7.9-4.4,10.3c-2.9,2.4-7.1,3.6-12.5,3.6h-4.5v16h-7V999h12.3c5.4,0,9.4,1.1,12,3.3
					S664.9,1007.7,664.9,1011.9z M643.5,1019.9h3.7c3.6,0,6.2-0.6,7.9-1.9c1.7-1.2,2.5-3.2,2.5-5.9c0-2.5-0.8-4.3-2.3-5.5
					c-1.5-1.2-3.8-1.8-7-1.8h-4.9V1019.9z"/>
				<path class="st0" d="M679.9,1024.7v17.1h-7V999H685c5.5,0,9.6,1,12.3,3.1c2.7,2.1,4,5.2,4,9.4c0,5.3-2.8,9.1-8.3,11.4l12.1,19
					h-8l-10.3-17.1H679.9z M679.9,1018.9h4.9c3.3,0,5.6-0.6,7.1-1.8s2.2-3,2.2-5.4c0-2.4-0.8-4.2-2.4-5.2s-4-1.6-7.1-1.6h-4.6
					V1018.9z"/>
				<path class="st0" d="M710.6,1041.8V999h7v42.8H710.6z"/>
				<path class="st0" d="M746.5,1004.4c-4,0-7.2,1.4-9.5,4.3c-2.3,2.9-3.5,6.8-3.5,11.8c0,5.3,1.1,9.2,3.3,11.9c2.2,2.7,5.4,4,9.6,4
					c1.8,0,3.6-0.2,5.3-0.5s3.5-0.8,5.3-1.4v6c-3.4,1.3-7.2,1.9-11.4,1.9c-6.3,0-11.1-1.9-14.4-5.7c-3.4-3.8-5-9.2-5-16.3
					c0-4.5,0.8-8.3,2.4-11.7c1.6-3.3,4-5.9,7.1-7.7c3.1-1.8,6.7-2.7,10.9-2.7c4.4,0,8.4,0.9,12.1,2.8l-2.5,5.8
					c-1.4-0.7-3-1.3-4.6-1.8S748.3,1004.4,746.5,1004.4z"/>
				<path class="st0" d="M790,1041.8h-24.2V999H790v5.9h-17.2v11.7h16.1v5.9h-16.1v13.4H790V1041.8z"/>
			</g>
		</g>
		<g>
			<g>
				<path class="st0" d="M1623.1,1041.8l-12.4-35.8h-0.2c0.3,5.3,0.5,10.3,0.5,14.9v20.8h-6.4V999h9.9l11.9,34.1h0.2l12.2-34.1h9.9
					v42.8h-6.7v-21.2c0-2.1,0.1-4.9,0.2-8.3s0.2-5.5,0.3-6.2h-0.2l-12.9,35.7H1623.1z"/>
				<path class="st0" d="M1659.4,1041.8V999h7v42.8H1659.4z"/>
				<path class="st0" d="M1712.7,1041.8h-8.6l-21.1-34.1h-0.2l0.1,1.9c0.3,3.6,0.4,7,0.4,10v22.3h-6.4V999h8.5l21,34h0.2
					c0-0.4-0.1-2.1-0.2-4.9s-0.2-5-0.2-6.6V999h6.4V1041.8z"/>
				<path class="st0" d="M1721.7,1038.2c0-1.4,0.4-2.5,1.1-3.3s1.8-1.1,3.2-1.1c1.4,0,2.5,0.4,3.3,1.2s1.1,1.9,1.1,3.2
					c0,1.4-0.4,2.5-1.1,3.3c-0.8,0.8-1.8,1.2-3.2,1.2s-2.5-0.4-3.2-1.2S1721.7,1039.6,1721.7,1038.2z"/>
				<path class="st0" d="M1782.7,1011.9c0,4.5-1.5,7.9-4.4,10.3c-2.9,2.4-7.1,3.6-12.5,3.6h-4.5v16h-7V999h12.3
					c5.4,0,9.4,1.1,12,3.3S1782.7,1007.7,1782.7,1011.9z M1761.3,1019.9h3.7c3.6,0,6.2-0.6,7.9-1.9c1.7-1.2,2.5-3.2,2.5-5.9
					c0-2.5-0.8-4.3-2.3-5.5c-1.5-1.2-3.8-1.8-7-1.8h-4.9V1019.9z"/>
				<path class="st0" d="M1824.2,999v27.7c0,3.2-0.7,5.9-2,8.3s-3.3,4.2-5.9,5.5s-5.6,1.9-9.2,1.9c-5.3,0-9.4-1.4-12.4-4.2
					c-2.9-2.8-4.4-6.7-4.4-11.6V999h7v27.1c0,3.5,0.8,6.1,2.5,7.8s4.2,2.5,7.6,2.5c6.6,0,9.9-3.5,9.9-10.4v-27H1824.2z"/>
				<path class="st0" d="M1841.6,1024.7v17.1h-7V999h12.1c5.5,0,9.6,1,12.3,3.1s4,5.2,4,9.4c0,5.3-2.8,9.1-8.3,11.4l12.1,19h-8
					l-10.3-17.1H1841.6z M1841.6,1018.9h4.9c3.3,0,5.6-0.6,7.1-1.8s2.2-3,2.2-5.4c0-2.4-0.8-4.2-2.4-5.2s-4-1.6-7.1-1.6h-4.6V1018.9
					z"/>
				<path class="st0" d="M1890.6,1004.4c-4,0-7.2,1.4-9.5,4.3s-3.5,6.8-3.5,11.8c0,5.3,1.1,9.2,3.3,11.9c2.2,2.7,5.4,4,9.6,4
					c1.8,0,3.6-0.2,5.3-0.5s3.5-0.8,5.3-1.4v6c-3.4,1.3-7.2,1.9-11.4,1.9c-6.3,0-11.1-1.9-14.4-5.7s-5-9.2-5-16.3
					c0-4.5,0.8-8.3,2.4-11.7c1.6-3.3,4-5.9,7.1-7.7s6.7-2.7,10.9-2.7c4.4,0,8.4,0.9,12.1,2.8l-2.5,5.8c-1.4-0.7-3-1.3-4.6-1.8
					S1892.3,1004.4,1890.6,1004.4z"/>
				<path class="st0" d="M1943.5,1041.8h-7v-19.3h-19.7v19.3h-7V999h7v17.5h19.7V999h7V1041.8z"/>
				<path class="st0" d="M1980.8,1041.8l-4.3-11.9h-16.4l-4.2,11.9h-7.4l16-43h7.6l16,43H1980.8z M1974.7,1023.9l-4-11.7
					c-0.3-0.8-0.7-2-1.2-3.7s-0.9-2.9-1.1-3.7c-0.5,2.4-1.3,5-2.3,7.9l-3.9,11.2H1974.7z"/>
				<path class="st0" d="M2018,1030.2c0,3.8-1.4,6.8-4.1,9s-6.6,3.3-11.4,3.3c-4.8,0-8.8-0.8-11.9-2.3v-6.6c2,0.9,4,1.6,6.2,2.2
					s4.2,0.8,6.1,0.8c2.8,0,4.8-0.5,6.1-1.6s2-2.5,2-4.2c0-1.6-0.6-3-1.8-4.1c-1.2-1.1-3.7-2.4-7.5-4c-3.9-1.6-6.7-3.4-8.3-5.4
					c-1.6-2-2.4-4.5-2.4-7.3c0-3.6,1.3-6.4,3.8-8.4c2.5-2.1,5.9-3.1,10.2-3.1c4.1,0,8.2,0.9,12.2,2.7l-2.2,5.7
					c-3.8-1.6-7.2-2.4-10.2-2.4c-2.3,0-4,0.5-5.2,1.5s-1.8,2.3-1.8,3.9c0,1.1,0.2,2.1,0.7,2.9s1.2,1.5,2.3,2.2
					c1.1,0.7,3,1.6,5.8,2.8c3.1,1.3,5.4,2.5,6.9,3.7s2.5,2.4,3.2,3.8C2017.6,1026.6,2018,1028.3,2018,1030.2z"/>
				<path class="st0" d="M2049.9,1041.8h-24.2V999h24.2v5.9h-17.2v11.7h16.1v5.9h-16.1v13.4h17.2V1041.8z"/>
			</g>
		</g>
		<g>
			<path class="st0" d="M749.7,372.3c0,3.2-2.6,5.7-5.8,5.7h-41.7c-3.2,0-5.7-2.4-5.7-5.7c0-3.2,2.4-5.8,5.7-5.8h16.1V298l-13.8,6.8
				c-0.9,0.4-1.8,0.8-3.1,0.8c-3.4,0-5.8-2.4-5.8-5.8c0-2.6,1.1-4.3,3.5-5.5l18.4-9.6c1.1-0.5,2.4-0.9,3.8-0.9h2.8
				c3.5,0,6.5,3,6.5,6.5v76.3h13.4C747.1,366.5,749.7,369.1,749.7,372.3z"/>
			<path class="st0" d="M835.5,372.3c0,3.2-2.6,5.7-5.8,5.7h-52.1c-4.2,0-7.2-2.8-7.2-7c0-28.5,54-38.2,54-60.2
				c0-9.6-5.7-16.7-21.3-16.7c-9.2,0-17,2.2-23.1,4.9c-0.3,0.1-1.5,0.7-2.6,0.7c-3,0-5.1-2.3-5.1-5.3c0-2.3,0.9-3.9,3-5
				c7.6-3.8,17.5-6.9,30-6.9c17.3,0,31,10.9,31,27.4c0,27.8-46.3,40.9-53.6,56.7h47C833,366.5,835.5,369.1,835.5,372.3z"/>
			<path class="st0" d="M923.4,348.7c0,17-12.7,30.6-33.3,30.6c-33.3,0-37-29.8-37-48.3c0-21.1,9.4-48.6,39.1-48.6
				c11.2,0,18.5,3,23.9,5.8c1.6,0.8,2.8,2.8,2.8,4.9c0,2.8-2.2,5.5-5.5,5.5c-0.8,0-1.6-0.1-2.3-0.4c-4.6-2.2-10.5-3.9-18-3.9
				c-23.2,0-27.7,22.4-28.3,34.6c4.5-5.7,12.8-11.9,27.7-11.9C910.9,316.9,923.4,329.4,923.4,348.7z M911.1,348.4
				c0-11.9-6.6-20.2-20.1-20.2c-15.9,0-22.7,9.6-25.5,14.8c1.9,13.1,7.8,24.8,24.7,24.8C903,367.8,911.1,358.8,911.1,348.4z"/>
			<path class="st0" d="M1041.3,330.8c0,28.9-12.4,48.5-36.6,48.5c-24.3,0-36.6-19.6-36.6-48.5s12.3-48.5,36.6-48.5
				C1028.8,282.4,1041.3,302,1041.3,330.8z M1029,330.8c0-22.7-8.4-37-24.3-37s-24.3,14.3-24.3,37c0,22.8,8.4,37.1,24.3,37.1
				S1029,353.7,1029,330.8z"/>
			<path class="st0" d="M1124.7,330.8c0,28.9-12.4,48.5-36.6,48.5c-24.3,0-36.6-19.6-36.6-48.5s12.3-48.5,36.6-48.5
				C1112.3,282.4,1124.7,302,1124.7,330.8z M1112.4,330.8c0-22.7-8.4-37-24.3-37s-24.3,14.3-24.3,37c0,22.8,8.4,37.1,24.3,37.1
				S1112.4,353.7,1112.4,330.8z"/>
			<path class="st0" d="M1208.1,330.8c0,28.9-12.4,48.5-36.6,48.5c-24.3,0-36.6-19.6-36.6-48.5s12.3-48.5,36.6-48.5
				C1195.7,282.4,1208.1,302,1208.1,330.8z M1195.8,330.8c0-22.7-8.4-37-24.3-37s-24.3,14.3-24.3,37c0,22.8,8.4,37.1,24.3,37.1
				S1195.8,353.7,1195.8,330.8z"/>
			<path class="st0" d="M1325.3,330.8c0,28.9-12.4,48.5-36.6,48.5c-24.3,0-36.6-19.6-36.6-48.5s12.3-48.5,36.6-48.5
				C1312.9,282.4,1325.3,302,1325.3,330.8z M1313,330.8c0-22.7-8.4-37-24.3-37s-24.3,14.3-24.3,37c0,22.8,8.4,37.1,24.3,37.1
				S1313,353.7,1313,330.8z"/>
			<path class="st0" d="M1408.7,330.8c0,28.9-12.4,48.5-36.6,48.5c-24.3,0-36.6-19.6-36.6-48.5s12.3-48.5,36.6-48.5
				C1396.3,282.4,1408.7,302,1408.7,330.8z M1396.4,330.8c0-22.7-8.4-37-24.3-37c-15.9,0-24.3,14.3-24.3,37
				c0,22.8,8.4,37.1,24.3,37.1C1388.1,368,1396.4,353.7,1396.4,330.8z"/>
			<path class="st0" d="M1492.2,330.8c0,28.9-12.4,48.5-36.6,48.5c-24.3,0-36.6-19.6-36.6-48.5s12.3-48.5,36.6-48.5
				C1479.7,282.4,1492.2,302,1492.2,330.8z M1479.9,330.8c0-22.7-8.4-37-24.3-37c-15.9,0-24.3,14.3-24.3,37
				c0,22.8,8.4,37.1,24.3,37.1C1471.5,368,1479.9,353.7,1479.9,330.8z"/>
			<path class="st0" d="M1609.3,330.8c0,28.9-12.4,48.5-36.6,48.5c-24.3,0-36.6-19.6-36.6-48.5s12.3-48.5,36.6-48.5
				C1596.9,282.4,1609.3,302,1609.3,330.8z M1597.1,330.8c0-22.7-8.4-37-24.3-37c-15.9,0-24.3,14.3-24.3,37
				c0,22.8,8.4,37.1,24.3,37.1C1588.7,368,1597.1,353.7,1597.1,330.8z"/>
			<path class="st0" d="M1692.8,330.8c0,28.9-12.4,48.5-36.6,48.5c-24.3,0-36.6-19.6-36.6-48.5s12.3-48.5,36.6-48.5
				C1680.3,282.4,1692.8,302,1692.8,330.8z M1680.5,330.8c0-22.7-8.4-37-24.3-37c-15.9,0-24.3,14.3-24.3,37
				c0,22.8,8.4,37.1,24.3,37.1C1672.1,368,1680.5,353.7,1680.5,330.8z"/>
			<path class="st0" d="M1776.2,330.8c0,28.9-12.4,48.5-36.6,48.5c-24.3,0-36.6-19.6-36.6-48.5s12.3-48.5,36.6-48.5
				C1763.8,282.4,1776.2,302,1776.2,330.8z M1763.9,330.8c0-22.7-8.4-37-24.3-37c-15.9,0-24.3,14.3-24.3,37
				c0,22.8,8.4,37.1,24.3,37.1C1755.5,368,1763.9,353.7,1763.9,330.8z"/>
		</g>
		<g>
			<path class="st0" d="M343.8,770.2c0,14.6-12.4,25.2-31.7,26.3v10.5c0,1.8-1.4,3-3.1,3s-3-1.2-3-3v-10.5
				c-12-0.5-21.7-3.4-28.9-6.5c-2-0.8-3.8-2.8-3.8-5.3c0-3,2.2-5.5,5.5-5.5c0.8,0,1.6,0.1,2.6,0.5c5.7,2.6,13.9,5,24.6,5.3v-30.9
				c-15.3-4-31.7-9-31.7-26.9c0-14.3,10.9-26.5,31.7-27.5v-10.5c0-1.8,1.2-3.1,3-3.1s3.1,1.3,3.1,3.1v10.4c9.3,0.3,17.4,2,24,4.5
				c1.9,0.7,3.8,2.2,3.8,5.4c0,2.7-2,5.5-5.4,5.5c-0.7,0-1.5-0.3-2.2-0.5c-5.8-2-12.7-3.5-20.2-3.6V743
				C327.3,746.6,343.8,751.2,343.8,770.2z M306,741.5v-30.4c-11.3,1.1-19.6,6.3-19.6,15.3C286.4,735.5,295.2,738.8,306,741.5z
				 M331.6,769.4c0-7.8-8.9-10.9-19.6-13.8v29.3C323.4,784.1,331.6,779.9,331.6,769.4z"/>
			<path class="st0" d="M425.3,766c0,17.3-11.3,30.5-37,30.5c-12.6,0-22-3.5-28.8-7.8c-1.3-0.9-2.7-2-2.7-4.9c0-3.1,2.2-5.8,5.4-5.8
				c1.1,0,2,0.3,2.8,0.7c5.8,3.1,13.1,5.7,21.6,5.7c15.9,0,26.3-4.5,26.3-19c0-11.1-8-18.1-20.9-18.1c-9.2,0-16.3,3.1-20.8,5.8
				c-1.2,0.7-2.6,1.6-4.7,1.6c-5,0-8.9-3-8.9-7.8c0-0.9,0.1-2.4,0.3-3.2l6.1-35.9c0.5-4.2,3.4-6.8,7.2-6.8h43.3
				c3.2,0,5.8,2.6,5.8,5.8c0,3.2-2.6,5.7-5.8,5.7h-39.1l-4.3,28.6c5.5-3,12.8-5.5,22.8-5.5C414.3,735.5,425.3,748.5,425.3,766z"/>
			<path class="st0" d="M544.4,748.1c0,28.9-12.4,48.5-36.6,48.5c-24.3,0-36.6-19.6-36.6-48.5s12.3-48.5,36.6-48.5
				C532,699.6,544.4,719.2,544.4,748.1z M532.1,748.1c0-22.7-8.4-37-24.3-37s-24.3,14.3-24.3,37c0,22.8,8.4,37.1,24.3,37.1
				S532.1,770.9,532.1,748.1z"/>
			<path class="st0" d="M627.8,748.1c0,28.9-12.4,48.5-36.6,48.5c-24.3,0-36.6-19.6-36.6-48.5s12.3-48.5,36.6-48.5
				C615.4,699.6,627.8,719.2,627.8,748.1z M615.5,748.1c0-22.7-8.4-37-24.3-37s-24.3,14.3-24.3,37c0,22.8,8.4,37.1,24.3,37.1
				S615.5,770.9,615.5,748.1z"/>
			<path class="st0" d="M711.3,748.1c0,28.9-12.4,48.5-36.6,48.5c-24.3,0-36.6-19.6-36.6-48.5s12.3-48.5,36.6-48.5
				C698.8,699.6,711.3,719.2,711.3,748.1z M699,748.1c0-22.7-8.4-37-24.3-37s-24.3,14.3-24.3,37c0,22.8,8.4,37.1,24.3,37.1
				S699,770.9,699,748.1z"/>
			<path class="st0" d="M828.4,748.1c0,28.9-12.4,48.5-36.6,48.5c-24.3,0-36.6-19.6-36.6-48.5s12.3-48.5,36.6-48.5
				C816,699.6,828.4,719.2,828.4,748.1z M816.2,748.1c0-22.7-8.4-37-24.3-37c-15.9,0-24.3,14.3-24.3,37c0,22.8,8.4,37.1,24.3,37.1
				C807.8,785.2,816.2,770.9,816.2,748.1z"/>
			<path class="st0" d="M911.9,748.1c0,28.9-12.4,48.5-36.6,48.5c-24.3,0-36.6-19.6-36.6-48.5s12.3-48.5,36.6-48.5
				C899.4,699.6,911.9,719.2,911.9,748.1z M899.6,748.1c0-22.7-8.4-37-24.3-37c-15.9,0-24.3,14.3-24.3,37c0,22.8,8.4,37.1,24.3,37.1
				C891.2,785.2,899.6,770.9,899.6,748.1z"/>
			<path class="st0" d="M995.3,748.1c0,28.9-12.4,48.5-36.6,48.5c-24.3,0-36.6-19.6-36.6-48.5s12.3-48.5,36.6-48.5
				C982.9,699.6,995.3,719.2,995.3,748.1z M983,748.1c0-22.7-8.4-37-24.3-37c-15.9,0-24.3,14.3-24.3,37c0,22.8,8.4,37.1,24.3,37.1
				C974.6,785.2,983,770.9,983,748.1z"/>
		</g>
		<g>
			<path class="st0" d="M315.9,1206.8c0,3.2-2.6,5.7-5.8,5.7h-41.7c-3.2,0-5.7-2.4-5.7-5.7c0-3.2,2.4-5.8,5.7-5.8h16.1v-68.4
				l-13.8,6.8c-0.9,0.4-1.8,0.8-3.1,0.8c-3.4,0-5.8-2.4-5.8-5.8c0-2.6,1.1-4.3,3.5-5.5l18.4-9.6c1.1-0.5,2.4-0.9,3.8-0.9h2.8
				c3.5,0,6.5,3,6.5,6.5v76.3H310C313.3,1201,315.9,1203.5,315.9,1206.8z"/>
			<path class="st0" d="M371.5,1152.6c0-3,2.3-5.3,5.3-5.3h65.9c3,0,5.3,2.3,5.3,5.3s-2.3,5.3-5.3,5.3h-65.9
				C373.8,1157.9,371.5,1155.6,371.5,1152.6z M447.9,1182.9c0,3-2.3,5.3-5.3,5.3h-65.9c-3,0-5.3-2.3-5.3-5.3s2.3-5.3,5.3-5.3h65.9
				C445.6,1177.6,447.9,1179.9,447.9,1182.9z"/>
			<path class="st0" d="M566.9,1187.5c0,14.6-12.4,25.2-31.7,26.3v10.5c0,1.8-1.4,3-3.1,3s-3-1.2-3-3v-10.5
				c-12-0.5-21.7-3.4-28.9-6.5c-2-0.8-3.8-2.8-3.8-5.3c0-3,2.2-5.5,5.5-5.5c0.8,0,1.6,0.1,2.6,0.5c5.7,2.6,13.9,5,24.6,5.3v-30.9
				c-15.3-4-31.7-9-31.7-26.9c0-14.3,10.9-26.5,31.7-27.5v-10.5c0-1.8,1.2-3.1,3-3.1s3.1,1.3,3.1,3.1v10.4c9.3,0.3,17.4,2,24,4.5
				c1.9,0.7,3.8,2.2,3.8,5.4c0,2.7-2,5.5-5.4,5.5c-0.7,0-1.5-0.3-2.2-0.5c-5.8-2-12.7-3.5-20.2-3.6v32.1
				C550.5,1163.8,566.9,1168.4,566.9,1187.5z M529.1,1158.7v-30.4c-11.3,1.1-19.6,6.3-19.6,15.3
				C509.6,1152.8,518.3,1156,529.1,1158.7z M554.8,1186.7c0-7.8-8.9-10.9-19.6-13.8v29.3C546.6,1201.4,554.8,1197.2,554.8,1186.7z"
				/>
			<path class="st0" d="M650.4,1165.3c0,28.9-12.4,48.5-36.6,48.5c-24.3,0-36.6-19.6-36.6-48.5s12.3-48.5,36.6-48.5
				C638,1116.9,650.4,1136.4,650.4,1165.3z M638.1,1165.3c0-22.7-8.4-37-24.3-37s-24.3,14.3-24.3,37c0,22.8,8.4,37.1,24.3,37.1
				S638.1,1188.1,638.1,1165.3z"/>
			<path class="st0" d="M680.6,1204.5v0.8c0,4.2-3.4,7.6-7.6,7.6h-1.3c-4.2,0-7.6-3.4-7.6-7.6v-0.8c0-4.2,3.4-7.6,7.6-7.6h1.3
				C677.2,1196.9,680.6,1200.3,680.6,1204.5z"/>
			<path class="st0" d="M767.6,1165.3c0,28.9-12.4,48.5-36.6,48.5c-24.3,0-36.6-19.6-36.6-48.5s12.3-48.5,36.6-48.5
				C755.1,1116.9,767.6,1136.4,767.6,1165.3z M755.3,1165.3c0-22.7-8.4-37-24.3-37c-15.9,0-24.3,14.3-24.3,37
				c0,22.8,8.4,37.1,24.3,37.1C746.9,1202.5,755.3,1188.1,755.3,1165.3z"/>
			<path class="st0" d="M851,1165.3c0,28.9-12.4,48.5-36.6,48.5c-24.3,0-36.6-19.6-36.6-48.5s12.3-48.5,36.6-48.5
				C838.6,1116.9,851,1136.4,851,1165.3z M838.7,1165.3c0-22.7-8.4-37-24.3-37c-15.9,0-24.3,14.3-24.3,37c0,22.8,8.4,37.1,24.3,37.1
				C830.3,1202.5,838.7,1188.1,838.7,1165.3z"/>
			<path class="st0" d="M934.4,1165.3c0,28.9-12.4,48.5-36.6,48.5c-24.3,0-36.6-19.6-36.6-48.5s12.3-48.5,36.6-48.5
				C922,1116.9,934.4,1136.4,934.4,1165.3z M922.1,1165.3c0-22.7-8.4-37-24.3-37c-15.9,0-24.3,14.3-24.3,37
				c0,22.8,8.4,37.1,24.3,37.1C913.8,1202.5,922.1,1188.1,922.1,1165.3z"/>
			<path class="st0" d="M1016,1183.3c0,17.3-11.3,30.5-37,30.5c-12.6,0-22-3.5-28.8-7.8c-1.3-0.9-2.7-2-2.7-4.9
				c0-3.1,2.2-5.8,5.4-5.8c1.1,0,2,0.3,2.8,0.7c5.8,3.1,13.1,5.7,21.6,5.7c15.9,0,26.3-4.5,26.3-19c0-11.1-8-18.1-20.9-18.1
				c-9.2,0-16.3,3.1-20.8,5.8c-1.2,0.7-2.6,1.6-4.7,1.6c-5,0-8.9-3-8.9-7.8c0-0.9,0.1-2.4,0.3-3.2l6.1-35.9c0.5-4.2,3.4-6.8,7.2-6.8
				h43.3c3.2,0,5.8,2.6,5.8,5.8c0,3.2-2.6,5.7-5.8,5.7H966l-4.3,28.6c5.5-3,12.8-5.5,22.8-5.5
				C1004.9,1152.8,1016,1165.7,1016,1183.3z"/>
		</g>
		<g>
			<path class="st0" d="M1494.3,770.2c0,14.6-12.4,25.2-31.7,26.3v10.5c0,1.8-1.3,3-3.1,3s-3-1.2-3-3v-10.5
				c-12-0.5-21.7-3.4-28.9-6.5c-2-0.8-3.8-2.8-3.8-5.3c0-3,2.2-5.5,5.5-5.5c0.8,0,1.6,0.1,2.6,0.5c5.7,2.6,13.9,5,24.6,5.3v-30.9
				c-15.3-4-31.7-9-31.7-26.9c0-14.3,10.9-26.5,31.7-27.5v-10.5c0-1.8,1.2-3.1,3-3.1s3.1,1.3,3.1,3.1v10.4c9.3,0.3,17.4,2,24,4.5
				c1.9,0.7,3.8,2.2,3.8,5.4c0,2.7-2,5.5-5.4,5.5c-0.7,0-1.5-0.3-2.2-0.5c-5.8-2-12.7-3.5-20.2-3.6V743
				C1477.8,746.6,1494.3,751.2,1494.3,770.2z M1456.5,741.5v-30.4c-11.3,1.1-19.6,6.3-19.6,15.3
				C1436.9,735.5,1445.7,738.8,1456.5,741.5z M1482.1,769.4c0-7.8-8.9-10.9-19.6-13.8v29.3C1473.9,784.1,1482.1,779.9,1482.1,769.4z
				"/>
			<path class="st0" d="M1572.6,789.5c0,3.2-2.6,5.7-5.8,5.7h-52.1c-4.2,0-7.2-2.8-7.2-7c0-28.5,54-38.2,54-60.2
				c0-9.6-5.7-16.7-21.3-16.7c-9.2,0-17,2.2-23.1,4.9c-0.3,0.1-1.5,0.7-2.6,0.7c-3,0-5.1-2.3-5.1-5.3c0-2.3,0.9-3.9,3-5
				c7.6-3.8,17.5-6.9,30-6.9c17.3,0,31,10.9,31,27.4c0,27.8-46.3,40.9-53.6,56.7h47C1570,783.7,1572.6,786.3,1572.6,789.5z"/>
			<path class="st0" d="M1659.2,766c0,17.3-11.3,30.5-37,30.5c-12.6,0-22-3.5-28.8-7.8c-1.3-0.9-2.7-2-2.7-4.9
				c0-3.1,2.2-5.8,5.4-5.8c1.1,0,2,0.3,2.8,0.7c5.8,3.1,13.1,5.7,21.6,5.7c15.9,0,26.3-4.5,26.3-19c0-11.1-8-18.1-20.9-18.1
				c-9.2,0-16.3,3.1-20.8,5.8c-1.2,0.7-2.6,1.6-4.7,1.6c-5,0-8.9-3-8.9-7.8c0-0.9,0.1-2.4,0.3-3.2l6.1-35.9c0.5-4.2,3.4-6.8,7.2-6.8
				h43.3c3.2,0,5.8,2.6,5.8,5.8c0,3.2-2.6,5.7-5.8,5.7h-39.1l-4.3,28.6c5.5-3,12.8-5.5,22.8-5.5
				C1648.2,735.5,1659.2,748.5,1659.2,766z"/>
			<path class="st0" d="M1778.3,748.1c0,28.9-12.4,48.5-36.6,48.5c-24.3,0-36.6-19.6-36.6-48.5s12.3-48.5,36.6-48.5
				C1765.9,699.6,1778.3,719.2,1778.3,748.1z M1766,748.1c0-22.7-8.4-37-24.3-37c-15.9,0-24.3,14.3-24.3,37
				c0,22.8,8.4,37.1,24.3,37.1C1757.6,785.2,1766,770.9,1766,748.1z"/>
			<path class="st0" d="M1861.7,748.1c0,28.9-12.4,48.5-36.6,48.5c-24.3,0-36.6-19.6-36.6-48.5s12.3-48.5,36.6-48.5
				C1849.3,699.6,1861.7,719.2,1861.7,748.1z M1849.4,748.1c0-22.7-8.4-37-24.3-37c-15.9,0-24.3,14.3-24.3,37
				c0,22.8,8.4,37.1,24.3,37.1C1841.1,785.2,1849.4,770.9,1849.4,748.1z"/>
			<path class="st0" d="M1945.1,748.1c0,28.9-12.4,48.5-36.6,48.5c-24.3,0-36.6-19.6-36.6-48.5s12.3-48.5,36.6-48.5
				C1932.7,699.6,1945.1,719.2,1945.1,748.1z M1932.9,748.1c0-22.7-8.4-37-24.3-37c-15.9,0-24.3,14.3-24.3,37
				c0,22.8,8.4,37.1,24.3,37.1C1924.5,785.2,1932.9,770.9,1932.9,748.1z"/>
			<path class="st0" d="M2062.3,748.1c0,28.9-12.4,48.5-36.6,48.5c-24.3,0-36.6-19.6-36.6-48.5s12.3-48.5,36.6-48.5
				C2049.9,699.6,2062.3,719.2,2062.3,748.1z M2050,748.1c0-22.7-8.4-37-24.3-37c-15.9,0-24.3,14.3-24.3,37
				c0,22.8,8.4,37.1,24.3,37.1C2041.7,785.2,2050,770.9,2050,748.1z"/>
			<path class="st0" d="M2145.8,748.1c0,28.9-12.4,48.5-36.6,48.5c-24.3,0-36.6-19.6-36.6-48.5s12.3-48.5,36.6-48.5
				C2133.3,699.6,2145.8,719.2,2145.8,748.1z M2133.5,748.1c0-22.7-8.4-37-24.3-37c-15.9,0-24.3,14.3-24.3,37
				c0,22.8,8.4,37.1,24.3,37.1C2125.1,785.2,2133.5,770.9,2133.5,748.1z"/>
			<path class="st0" d="M2229.2,748.1c0,28.9-12.4,48.5-36.6,48.5c-24.3,0-36.6-19.6-36.6-48.5s12.3-48.5,36.6-48.5
				C2216.8,699.6,2229.2,719.2,2229.2,748.1z M2216.9,748.1c0-22.7-8.4-37-24.3-37c-15.9,0-24.3,14.3-24.3,37
				c0,22.8,8.4,37.1,24.3,37.1C2208.5,785.2,2216.9,770.9,2216.9,748.1z"/>
		</g>
		<g>
			<path class="st0" d="M1578.4,1187.5c0,14.6-12.4,25.2-31.7,26.3v10.5c0,1.8-1.4,3-3.1,3s-3-1.2-3-3v-10.5
				c-12-0.5-21.7-3.4-28.9-6.5c-2-0.8-3.8-2.8-3.8-5.3c0-3,2.2-5.5,5.5-5.5c0.8,0,1.6,0.1,2.6,0.5c5.7,2.6,13.9,5,24.6,5.3v-30.9
				c-15.3-4-31.7-9-31.7-26.9c0-14.3,10.9-26.5,31.7-27.5v-10.5c0-1.8,1.2-3.1,3-3.1s3.1,1.3,3.1,3.1v10.4c9.3,0.3,17.4,2,24,4.5
				c1.9,0.7,3.8,2.2,3.8,5.4c0,2.7-2,5.5-5.4,5.5c-0.7,0-1.5-0.3-2.2-0.5c-5.8-2-12.7-3.5-20.2-3.6v32.1
				C1561.9,1163.8,1578.4,1168.4,1578.4,1187.5z M1540.6,1158.7v-30.4c-11.3,1.1-19.6,6.3-19.6,15.3
				C1521,1152.8,1529.8,1156,1540.6,1158.7z M1566.2,1186.7c0-7.8-8.9-10.9-19.6-13.8v29.3C1558,1201.4,1566.2,1197.2,1566.2,1186.7
				z"/>
			<path class="st0" d="M1654.2,1206.8c0,3.2-2.6,5.7-5.8,5.7h-41.7c-3.2,0-5.7-2.4-5.7-5.7c0-3.2,2.4-5.8,5.7-5.8h16.1v-68.4
				l-13.8,6.8c-0.9,0.4-1.8,0.8-3.1,0.8c-3.4,0-5.8-2.4-5.8-5.8c0-2.6,1.1-4.3,3.5-5.5l18.4-9.6c1.1-0.5,2.4-0.9,3.8-0.9h2.8
				c3.5,0,6.5,3,6.5,6.5v76.3h13.4C1651.7,1201,1654.2,1203.5,1654.2,1206.8z"/>
			<path class="st0" d="M1745.2,1165.3c0,28.9-12.4,48.5-36.6,48.5c-24.3,0-36.6-19.6-36.6-48.5s12.3-48.5,36.6-48.5
				C1732.8,1116.9,1745.2,1136.4,1745.2,1165.3z M1732.9,1165.3c0-22.7-8.4-37-24.3-37c-15.9,0-24.3,14.3-24.3,37
				c0,22.8,8.4,37.1,24.3,37.1C1724.6,1202.5,1732.9,1188.1,1732.9,1165.3z"/>
			<path class="st0" d="M1828.6,1165.3c0,28.9-12.4,48.5-36.6,48.5c-24.3,0-36.6-19.6-36.6-48.5s12.3-48.5,36.6-48.5
				C1816.2,1116.9,1828.6,1136.4,1828.6,1165.3z M1816.4,1165.3c0-22.7-8.4-37-24.3-37c-15.9,0-24.3,14.3-24.3,37
				c0,22.8,8.4,37.1,24.3,37.1C1808,1202.5,1816.4,1188.1,1816.4,1165.3z"/>
			<path class="st0" d="M1956.8,1123.8v53.3c0,25.4-20.7,36.7-38.7,36.7s-38.7-11.3-38.7-36.7v-53.3c0-3.4,2.7-6.2,6.1-6.2
				c3.4,0,6.2,2.8,6.2,6.2v53.7c0,16.9,13.2,25.1,26.5,25.1s26.5-8.2,26.5-25.1v-53.7c0-3.4,2.7-6.2,6.1-6.2
				C1953.9,1117.5,1956.8,1120.4,1956.8,1123.8z"/>
			<path class="st0" d="M2045.2,1187.5c0,15.3-13.6,26.3-34.6,26.3c-13.5,0-24.3-3.1-32.1-6.5c-2-0.8-3.8-3.1-3.8-5.5
				c0-3,2.2-5.7,5.5-5.7c0.8,0,1.6,0.1,2.6,0.5c6.1,2.7,15,5.5,26.6,5.5c13.4,0,23.6-3.8,23.6-15.5c0-20-57.4-8.9-57.4-42.1
				c0-15,12.1-27.7,35-27.7c10.5,0,19.6,1.8,26.9,4.5c1.9,0.7,3.8,2.2,3.8,5.4c0,2.7-2,5.7-5.4,5.7c-0.7,0-1.5-0.3-2.2-0.5
				c-6.2-2.2-13.5-3.6-21.7-3.6c-13.6,0-24,5.3-24,15.4C1987.9,1167,2045.2,1151.8,2045.2,1187.5z"/>
			<path class="st0" d="M2143.6,1165.3c0,22.7-15.4,47.1-47.7,47.1h-27.1c-3.4,0-6.1-2.7-6.1-6.1v-81.9c0-3.4,2.7-6.2,6.1-6.2h27.1
				C2128.2,1118.2,2143.6,1142.5,2143.6,1165.3z M2131.4,1165.3c0-21.1-14.4-35.6-37-35.6H2075v71.3h19.4
				C2117,1201,2131.4,1186.4,2131.4,1165.3z"/>
		</g>
	</g>
</g>
</svg>
